<svg xmlns="http://www.w3.org/2000/svg" height="624.773" width="604" version="1"><path d="M58.702 282.437H545.3l27.065 122.133-27.065 97.436L302 591.502 58.702 502.006 31.637 404.57z" opacity=".99" fill="#dc241f"/><path d="M82.881 37.922H521.12l48.718 81.558-48.718 104.653 24.179 60.888H58.702l24.18-60.888L34.162 119.48z" opacity=".99" fill="#0035ad"/><path d="M304.368 3.1c48.044-.908 89.1 35.852 137.585 29.43 19.7-3.396 37.732-12.25 56.274-19.172C532.36 47.9 566.579 82.462 600.51 117.222c-22.268 24.382-50.563 46.856-58.755 80.294-8.87 43.71 10.7 86.262 25.713 126.42 18.913 47.697 26.028 104.114 3.044 151.68-23.25 46.066-73.18 71.97-122.133 81.649-33.224 5.58-68.765 7.27-98.227 25.712-16.326 10.853-29.766 25.093-45.56 36.99-.855.992-1.76 1.488-2.594 1.691-.834-.203-1.739-.7-2.594-1.691-15.794-11.897-29.234-26.137-45.56-36.99-29.462-18.441-65.002-20.131-98.226-25.712-48.953-9.68-98.883-35.583-122.133-81.648-22.984-47.567-15.87-103.984 3.044-151.68 15.013-40.16 34.583-82.71 25.713-126.42-8.192-33.439-36.487-55.913-58.755-80.295C37.422 82.462 71.639 47.9 105.774 13.358c18.542 6.922 36.574 15.776 56.274 19.171 48.484 6.423 89.54-30.337 137.584-29.43.82-.017 1.553-.01 2.368-.017.815.007 1.55 0 2.368.018zM302 39.413c-23.298-.19-47.014 2.65-76.91 9.468-2.9 1.011-5.73 1.967-8.459 2.82-2.728.852-5.43 1.67-8.007 2.368-2.578.698-5.107 1.257-7.556 1.804-3.674.82-7.157 1.541-10.6 2.03-8.036 1.141-15.567 1.346-23.007.79a112.216 112.216 0 0 1-16.014-2.369c-2.164-.48-4.323-1.09-6.54-1.69-3.327-.905-6.757-1.877-10.263-3.046-2.336-.78-4.66-1.7-7.104-2.594a444.507 444.507 0 0 1-15.45-5.977L38.674 117.56l19.848 21.653c1.23 1.341 2.34 2.694 3.496 4.06 1.096 1.293 2.24 2.63 3.27 3.947.058.073.056.152.113.225.623.8 1.32 1.56 1.917 2.368.442.595.813 1.205 1.24 1.805.436.61.82 1.19 1.241 1.804.554.807 1.161 1.665 1.692 2.481.064.1.05.127.113.226.824 1.274 1.713 2.65 2.48 3.947.043.073.07.152.113.225.13.22.324.456.451.677.727 1.253 1.355 2.448 2.03 3.721.25.474.433.99.677 1.466.527 1.031 1.085 2.114 1.58 3.158a107.974 107.974 0 0 1 1.916 4.286c.043.103.07.122.112.225.382.915.772 1.894 1.128 2.82.252.654.55 1.257.79 1.917.11.304.23.708.338 1.015.294.832.514 1.64.79 2.48.261.805.544 1.557.79 2.37.043.145.067.303.111.45.337 1.134.713 2.346 1.015 3.496.073.277.155.511.226.79.35 1.38.6 2.77.902 4.172.01.045.102.067.112.112.2.93.275 1.881.451 2.82.098.518.248 1.057.34 1.58.177 1.024.297 2.006.45 3.043.066.454.164.898.225 1.354.062.453.17 1.01.226 1.466.04.32.075.58.112.902.147 1.266.23 2.55.34 3.834.013.177-.016.387 0 .564.065.82.172 1.541.224 2.368.018.294-.018.608 0 .903.06 1.09.19 2.166.226 3.27.007.177-.004.387 0 .564.032 1.254 0 2.563 0 3.834 0 .338.002.676 0 1.015-.003.435.007.804 0 1.24-.066 4.4-.33 8.924-.79 13.534-.505 5.072-1.274 10.336-2.255 15.676-.327 1.78-.635 3.49-1.015 5.3-.36 1.716-.72 3.444-1.128 5.188a251.134 251.134 0 0 1-1.466 5.864c-.054.208-.058.468-.113.677-.437 1.673-.986 3.263-1.466 4.962-.037.134-.074.316-.112.45-.505 1.777-1.03 3.497-1.58 5.3-.263.866-.515 1.723-.788 2.595-.345 1.095-.655 2.277-1.015 3.383-3.39 10.388-7.554 21.12-12.406 32.479C39.15 379.6 37.411 437.744 60.89 473.247c22.912 34.645 66.832 56.644 126.87 63.492 59.858 8.565 71.006 16.374 114.24 52.552 43.234-36.178 54.382-43.987 114.24-52.552 60.039-6.848 103.959-28.847 126.87-63.492 23.48-35.503 21.74-93.647-4.736-155.627-4.852-11.358-9.015-22.09-12.405-32.48-.36-1.105-.67-2.287-1.015-3.382-.274-.872-.526-1.73-.79-2.594a282.383 282.383 0 0 1-1.578-5.3c-.038-.135-.075-.317-.113-.451-.48-1.7-1.028-3.29-1.466-4.962-.054-.21-.06-.47-.112-.677-.513-1.98-1.012-3.92-1.467-5.864-.407-1.744-.767-3.472-1.127-5.188-.38-1.81-.688-3.52-1.015-5.3-.981-5.34-1.75-10.604-2.256-15.676-.46-4.61-.723-9.134-.79-13.533-.006-.437.004-.806 0-1.24v-1.016c.002-1.27-.032-2.58 0-3.834.005-.177-.006-.387 0-.564.037-1.104.166-2.18.226-3.27.019-.295-.018-.61 0-.903.052-.827.16-1.548.226-2.368.014-.177-.014-.387 0-.564.11-1.284.192-2.568.338-3.834.037-.322.074-.58.113-.902.056-.456.164-1.013.225-1.466.062-.456.16-.9.226-1.353.152-1.038.273-2.02.45-3.045.092-.522.242-1.06.34-1.58.175-.938.252-1.89.45-2.819.01-.045.102-.067.113-.112.3-1.403.55-2.793.902-4.173.07-.278.153-.512.225-.79.302-1.149.679-2.36 1.015-3.495.044-.147.07-.305.113-.45.244-.813.527-1.565.79-2.369.274-.842.494-1.649.789-2.48.108-.308.228-.71.338-1.016.24-.66.537-1.263.79-1.918.356-.925.746-1.904 1.127-2.819.043-.103.07-.122.113-.225a107.974 107.974 0 0 1 1.917-4.286c.494-1.044 1.05-2.127 1.579-3.158.243-.476.426-.992.676-1.466.675-1.273 1.303-2.468 2.03-3.72.128-.22.322-.458.45-.678.044-.073.07-.152.114-.225.768-1.297 1.657-2.673 2.48-3.947.065-.1.05-.127.114-.226.53-.816 1.137-1.674 1.69-2.48.423-.616.807-1.195 1.24-1.805.43-.6.8-1.21 1.242-1.805.599-.808 1.295-1.568 1.917-2.368.057-.073.056-.152.113-.225 1.03-1.317 2.175-2.654 3.27-3.948 1.157-1.365 2.268-2.718 3.496-4.06l19.848-21.652-73.415-74.543a444.434 444.434 0 0 1-15.45 5.977c-2.443.893-4.768 1.814-7.105 2.594-3.505 1.17-6.936 2.141-10.262 3.045-2.217.602-4.376 1.211-6.54 1.691-5.412 1.2-10.7 1.97-16.015 2.368-7.44.557-14.97.352-23.006-.789-3.443-.489-6.927-1.21-10.6-2.03-2.45-.547-4.979-1.106-7.557-1.804-2.578-.698-5.28-1.516-8.007-2.369a276.428 276.428 0 0 1-8.458-2.819c-29.898-6.819-53.613-9.658-76.91-9.468z" fill="#e5b407" stroke="#000" stroke-width="2.165"/><path d="M302 131.725l35.427 109.02 114.631.006-92.736 67.38 35.419 109.024L302 349.78l-92.742 67.375 35.42-109.022-92.737-67.382 114.63-.004z" fill="#fff" fill-rule="evenodd"/><path d="M301.95 289.218l.05-157.493-35.428 109.02z" fill="#fff"/><path d="M301.999 349.78V131.725m-57.321 176.408l207.38-67.382m-92.736 67.382L151.94 240.75m185.486-.003l-128.17 176.408" fill="none"/><path d="M209.258 417.155l92.74-67.375-.048-60.562z" fill="#666"/><path d="M209.258 417.155l92.692-127.937-57.273 18.915z" fill="#fff"/><path d="M151.94 240.75l150.01 48.468-57.273 18.915z" fill="#666"/><path d="M151.94 240.75l114.632-.003 35.378 48.47z" fill="#fff"/><path d="M301.95 289.218l35.477-48.471-35.43-109.02z" fill="#666"/><path d="M301.95 289.218l150.108-48.467-114.631-.004zm92.791 127.937l-92.79-127.937.048 60.562z" fill="#fff"/><path d="M394.741 417.155l-92.79-127.937 57.37 18.915 35.42 109.022" fill="#666"/><path d="M452.058 240.75l-92.736 67.383-57.372-18.915z" fill="#666"/><path d="M266.572 240.746l35.378 48.472" fill="none" stroke="#666" stroke-width=".25"/><path d="M359.322 308.132l-57.372-18.914" fill="#fff" stroke="#fff" stroke-width=".2"/><path d="M301.999 131.725l-35.427 109.02-114.631.006 92.736 67.38-35.42 109.024L302 349.78l92.741 67.375-35.42-109.023 92.737-67.381-114.631-.004z" fill="none" stroke="#000"/></svg>